<svg width="48" height="55" viewBox="0 0 48 55" fill="none" xmlns="http://www.w3.org/2000/svg">
<g filter="url(#filter0_d)">
<path d="M42.9286 15.1058C43.5179 15.1058 44 14.6236 44 14.0344V10.4629C44 9.87364 43.5179 9.3915 42.9286 9.3915H41.1429V6.53436C41.1429 3.38257 38.5804 0.820068 35.4286 0.820068H9.71429C6.5625 0.820068 4 3.38257 4 6.53436V40.8201C4 43.9719 6.5625 46.5344 9.71429 46.5344H35.4286C38.5804 46.5344 41.1429 43.9719 41.1429 40.8201V37.9629H42.9286C43.5179 37.9629 44 37.4808 44 36.8915V33.3201C44 32.7308 43.5179 32.2486 42.9286 32.2486H41.1429V26.5344H42.9286C43.5179 26.5344 44 26.0522 44 25.4629V21.8915C44 21.3022 43.5179 20.8201 42.9286 20.8201H41.1429V15.1058H42.9286ZM38.2857 40.8201C38.2857 42.3915 37 43.6772 35.4286 43.6772H9.71429C8.14286 43.6772 6.85714 42.3915 6.85714 40.8201V6.53436C6.85714 4.96293 8.14286 3.67721 9.71429 3.67721H35.4286C37 3.67721 38.2857 4.96293 38.2857 6.53436V40.8201ZM22.5714 25.1058C26.5179 25.1058 29.7143 21.9094 29.7143 17.9629C29.7143 14.0165 26.5179 10.8201 22.5714 10.8201C18.625 10.8201 15.4286 14.0165 15.4286 17.9629C15.4286 21.9094 18.625 25.1058 22.5714 25.1058ZM22.5714 13.6772C24.9375 13.6772 26.8571 15.5969 26.8571 17.9629C26.8571 20.329 24.9375 22.2486 22.5714 22.2486C20.2054 22.2486 18.2857 20.329 18.2857 17.9629C18.2857 15.5969 20.2054 13.6772 22.5714 13.6772ZM26.75 26.5344C25.0089 26.5344 24.5714 27.1594 22.5714 27.1594C20.5714 27.1594 20.1339 26.5344 18.3929 26.5344C16.5 26.5344 14.6607 27.3736 13.5893 28.9808C12.9464 29.9361 12.5714 31.0879 12.5714 32.329V35.8201C12.5714 36.2129 12.8929 36.5344 13.2857 36.5344H14.7143C15.1071 36.5344 15.4286 36.2129 15.4286 35.8201V32.329C15.4286 31.704 15.6161 31.0969 15.9643 30.579C16.4643 29.8379 17.375 29.4004 18.4018 29.4004C19.5089 29.4004 20.2589 30.0254 22.5804 30.0254C24.8929 30.0254 25.6429 29.4004 26.7589 29.4004C27.7857 29.4004 28.6964 29.8469 29.1964 30.579C29.5446 31.0969 29.7321 31.704 29.7321 32.329V35.8201C29.7321 36.2129 30.0536 36.5344 30.4464 36.5344H31.875C32.2679 36.5344 32.5893 36.2129 32.5893 35.8201V32.329C32.5893 31.0879 32.2143 29.9361 31.5714 28.9808C30.4732 27.3736 28.6339 26.5344 26.75 26.5344Z" fill="#939393"/>
</g>
<defs>
<filter id="filter0_d" x="0" y="0.820068" width="48" height="53.7143" filterUnits="userSpaceOnUse" color-interpolation-filters="sRGB">
<feFlood flood-opacity="0" result="BackgroundImageFix"/>
<feColorMatrix in="SourceAlpha" type="matrix" values="0 0 0 0 0 0 0 0 0 0 0 0 0 0 0 0 0 0 127 0" result="hardAlpha"/>
<feOffset dy="4"/>
<feGaussianBlur stdDeviation="2"/>
<feComposite in2="hardAlpha" operator="out"/>
<feColorMatrix type="matrix" values="0 0 0 0 0 0 0 0 0 0 0 0 0 0 0 0 0 0 0.25 0"/>
<feBlend mode="normal" in2="BackgroundImageFix" result="effect1_dropShadow"/>
<feBlend mode="normal" in="SourceGraphic" in2="effect1_dropShadow" result="shape"/>
</filter>
</defs>
</svg>
