<svg width="48" height="54" viewBox="0 0 48 54" fill="none" xmlns="http://www.w3.org/2000/svg">
<g filter="url(#filter0_d)">
<path d="M32.5714 31.5384H32.1518C31.0661 31.5384 30.0089 31.7974 28.9821 32.1456C25.75 33.242 22.2465 33.242 19.0143 32.1456C17.9893 31.7974 16.9348 31.5402 15.8518 31.5402H15.4286C12.3978 31.5402 9.4912 32.7441 7.34798 34.8869C5.20476 37.0298 4.00047 39.9363 4 42.967C4 43.7248 4.30102 44.4515 4.83684 44.9873C5.37266 45.5231 6.09938 45.8242 6.85714 45.8242H41.1429C41.9006 45.8242 42.6273 45.5231 43.1632 44.9873C43.699 44.4515 44 43.7248 44 42.967C44 39.936 42.7959 37.0291 40.6526 34.8858C38.5094 32.7425 35.6025 31.5384 32.5714 31.5384ZM6.85714 42.967C6.85951 40.6945 7.76332 38.5157 9.37027 36.9087C10.9772 35.3018 13.156 34.3979 15.4286 34.3956H15.8518C16.4696 34.3956 17.1839 34.5402 18.0982 34.85C21.9245 36.1477 26.0719 36.1477 29.8982 34.85C30.8188 34.5384 31.5348 34.3938 32.1518 34.3938H32.5714C34.844 34.3962 37.0228 35.3 38.6297 36.9069C40.2367 38.5139 41.1405 40.6927 41.1429 42.9652L6.85714 42.967ZM8.28571 20.1099C8.6646 20.1099 9.02796 19.9594 9.29587 19.6914C9.56378 19.4235 9.71429 19.0602 9.71429 18.6813V17.2527C9.71429 9.37594 16.1232 2.96701 24 2.96701C31.8768 2.96701 38.2857 9.37594 38.2857 17.2527V18.6813C38.2836 20.575 37.5304 22.3906 36.1913 23.7297C34.8522 25.0688 33.0366 25.822 31.1429 25.8242H28.2857C28.2857 25.0664 27.9847 24.3397 27.4489 23.8038C26.9131 23.268 26.1863 22.967 25.4286 22.967H22.5714C21.8137 22.967 21.0869 23.268 20.5511 23.8038C20.0153 24.3397 19.7143 25.0664 19.7143 25.8242C19.7143 26.5819 20.0153 27.3086 20.5511 27.8445C21.0869 28.3803 21.8137 28.6813 22.5714 28.6813H31.1429C33.794 28.678 36.3356 27.6234 38.2103 25.7487C40.0849 23.8741 41.1395 21.3324 41.1429 18.6813V17.2527C41.1429 7.79915 33.4536 0.109863 24 0.109863C14.5464 0.109863 6.85714 7.79915 6.85714 17.2527V18.6813C6.85714 19.0602 7.00765 19.4235 7.27556 19.6914C7.54347 19.9594 7.90683 20.1099 8.28571 20.1099ZM24 8.68129C25.6553 8.67391 27.2771 9.14817 28.6676 10.0463C30.0582 10.9444 31.1575 12.2276 31.8316 13.7395C32.5057 15.2514 32.7254 16.9267 32.4641 18.5613C32.2028 20.1959 31.4717 21.7192 30.3598 22.9456C30.3598 22.9536 30.3714 22.959 30.3759 22.967H31.1429C31.8678 22.9654 32.5803 22.7796 33.2137 22.4269C33.847 22.0742 34.3803 21.5663 34.7634 20.9509C35.1607 19.7849 35.4286 18.5545 35.4286 17.2527C35.4286 14.2217 34.2245 11.3148 32.0812 9.1715C29.9379 7.02823 27.031 5.82415 24 5.82415C20.969 5.82415 18.0621 7.02823 15.9188 9.1715C13.7755 11.3148 12.5714 14.2217 12.5714 17.2527C12.5714 20.8617 14.2768 24.0384 16.8884 26.134C16.883 26.0295 16.8571 25.9304 16.8571 25.8242C16.8636 24.8177 17.1388 23.8313 17.6545 22.967C16.5369 21.7421 15.8004 20.2182 15.5349 18.5815C15.2694 16.9448 15.4865 15.2662 16.1596 13.7508C16.8327 12.2355 17.9326 10.9491 19.325 10.0488C20.7174 9.14846 22.3419 8.67327 24 8.68129Z" fill="#939393"/>
</g>
<defs>
<filter id="filter0_d" x="0" y="0.109863" width="48" height="53.7143" filterUnits="userSpaceOnUse" color-interpolation-filters="sRGB">
<feFlood flood-opacity="0" result="BackgroundImageFix"/>
<feColorMatrix in="SourceAlpha" type="matrix" values="0 0 0 0 0 0 0 0 0 0 0 0 0 0 0 0 0 0 127 0" result="hardAlpha"/>
<feOffset dy="4"/>
<feGaussianBlur stdDeviation="2"/>
<feComposite in2="hardAlpha" operator="out"/>
<feColorMatrix type="matrix" values="0 0 0 0 0 0 0 0 0 0 0 0 0 0 0 0 0 0 0.25 0"/>
<feBlend mode="normal" in2="BackgroundImageFix" result="effect1_dropShadow"/>
<feBlend mode="normal" in="SourceGraphic" in2="effect1_dropShadow" result="shape"/>
</filter>
</defs>
</svg>
