<svg width="48" height="35" viewBox="0 0 48 35" fill="none" xmlns="http://www.w3.org/2000/svg">
<g filter="url(#filter0_d)">
<path d="M42.3333 0H10.1111C9.19208 0 8.44444 0.757055 8.44444 1.6875V2.25H5.66667C4.74618 2.25 4 3.00551 4 3.9375V23.625C4 25.489 5.49236 27 7.33333 27H42.3333C43.2523 27 44 26.2429 44 25.3125V1.6875C44 0.757055 43.2523 0 42.3333 0ZM6.22222 23.625V4.5H8.44444V23.625C8.44444 24.2453 7.94597 24.75 7.33333 24.75C6.72069 24.75 6.22222 24.2453 6.22222 23.625ZM41.7778 24.75H10.4763C10.6025 24.3887 10.6669 24.0082 10.6667 23.625V2.25H41.7778V24.75ZM13.7222 18H25.3889C25.8491 18 26.2222 17.6222 26.2222 17.1562V5.34375C26.2222 4.87779 25.8491 4.5 25.3889 4.5H13.7222C13.262 4.5 12.8889 4.87779 12.8889 5.34375V17.1562C12.8889 17.6222 13.262 18 13.7222 18ZM15.1111 6.75H24V15.75H15.1111V6.75ZM12.8889 21.6562V21.0938C12.8889 20.6278 13.262 20.25 13.7222 20.25H25.3889C25.8491 20.25 26.2222 20.6278 26.2222 21.0938V21.6562C26.2222 22.1222 25.8491 22.5 25.3889 22.5H13.7222C13.262 22.5 12.8889 22.1222 12.8889 21.6562ZM28.4444 21.6562V21.0938C28.4444 20.6278 28.8176 20.25 29.2778 20.25H38.7222C39.1824 20.25 39.5556 20.6278 39.5556 21.0938V21.6562C39.5556 22.1222 39.1824 22.5 38.7222 22.5H29.2778C28.8176 22.5 28.4444 22.1222 28.4444 21.6562ZM28.4444 17.1562V16.5938C28.4444 16.1278 28.8176 15.75 29.2778 15.75H38.7222C39.1824 15.75 39.5556 16.1278 39.5556 16.5938V17.1562C39.5556 17.6222 39.1824 18 38.7222 18H29.2778C28.8176 18 28.4444 17.6222 28.4444 17.1562ZM28.4444 8.15625V7.59375C28.4444 7.12779 28.8176 6.75 29.2778 6.75H38.7222C39.1824 6.75 39.5556 7.12779 39.5556 7.59375V8.15625C39.5556 8.62221 39.1824 9 38.7222 9H29.2778C28.8176 9 28.4444 8.62221 28.4444 8.15625ZM28.4444 12.6562V12.0938C28.4444 11.6278 28.8176 11.25 29.2778 11.25H38.7222C39.1824 11.25 39.5556 11.6278 39.5556 12.0938V12.6562C39.5556 13.1222 39.1824 13.5 38.7222 13.5H29.2778C28.8176 13.5 28.4444 13.1222 28.4444 12.6562Z" fill="#2A86B1"/>
</g>
<defs>
<filter id="filter0_d" x="0" y="0" width="48" height="35" filterUnits="userSpaceOnUse" color-interpolation-filters="sRGB">
<feFlood flood-opacity="0" result="BackgroundImageFix"/>
<feColorMatrix in="SourceAlpha" type="matrix" values="0 0 0 0 0 0 0 0 0 0 0 0 0 0 0 0 0 0 127 0" result="hardAlpha"/>
<feOffset dy="4"/>
<feGaussianBlur stdDeviation="2"/>
<feComposite in2="hardAlpha" operator="out"/>
<feColorMatrix type="matrix" values="0 0 0 0 0 0 0 0 0 0 0 0 0 0 0 0 0 0 0.25 0"/>
<feBlend mode="normal" in2="BackgroundImageFix" result="effect1_dropShadow"/>
<feBlend mode="normal" in="SourceGraphic" in2="effect1_dropShadow" result="shape"/>
</filter>
</defs>
</svg>
