<svg width="48" height="40" viewBox="0 0 48 40" fill="none" xmlns="http://www.w3.org/2000/svg">
<g filter="url(#filter0_d)">
<path d="M39.7576 0H39.7465C38.0743 0.00833333 29.6944 0.613194 24.4993 3.33958C24.2181 3.4868 23.7819 3.4868 23.5007 3.33958C18.3049 0.613194 9.925 0.00833333 8.25347 0H8.24236C5.90278 0 4 1.83819 4 4.09791V24.7021C4 26.8833 5.76458 28.6798 8.01736 28.7923C10.4319 28.9146 16.4917 29.3659 20.6486 30.9014C21.0146 31.0368 21.3875 31.1111 21.7771 31.1111H26.2215C26.6118 31.1111 26.9847 31.0361 27.3507 30.9014C31.5083 29.3659 37.5674 28.9146 39.984 28.7923C42.2347 28.6798 43.9993 26.884 43.9993 24.7028V4.09791C44 1.83819 42.0972 0 39.7576 0ZM22.8889 27.8472C22.8889 28.4451 22.3931 28.8979 21.8292 28.8979C21.7063 28.8979 21.5799 28.8764 21.4549 28.8298C17.1181 27.218 11.1083 26.7236 8.12778 26.5722C7.05903 26.5187 6.22222 25.6972 6.22222 24.7021V4.09791C6.22222 3.06389 7.12917 2.22291 8.24236 2.22291C9.58125 2.22986 16.7465 2.73541 21.584 4.88194C22.366 5.22916 22.8785 5.97569 22.8799 6.81527L22.8889 13.7819V27.8472V27.8472ZM41.7778 24.7021C41.7778 25.6972 40.941 26.5187 39.8715 26.5722C36.891 26.7236 30.8813 27.218 26.5444 28.8298C26.4194 28.8764 26.2931 28.8979 26.1701 28.8979C25.6069 28.8979 25.1104 28.4451 25.1104 27.8472V13.7819L25.1194 6.81527C25.1201 5.97569 25.6333 5.22916 26.4153 4.88194C31.2528 2.73541 38.4181 2.22986 39.757 2.22291C40.8701 2.22291 41.7771 3.06389 41.7771 4.09791V24.7021H41.7778Z" fill="#939393"/>
</g>
<defs>
<filter id="filter0_d" x="0" y="0" width="47.9993" height="39.1111" filterUnits="userSpaceOnUse" color-interpolation-filters="sRGB">
<feFlood flood-opacity="0" result="BackgroundImageFix"/>
<feColorMatrix in="SourceAlpha" type="matrix" values="0 0 0 0 0 0 0 0 0 0 0 0 0 0 0 0 0 0 127 0" result="hardAlpha"/>
<feOffset dy="4"/>
<feGaussianBlur stdDeviation="2"/>
<feComposite in2="hardAlpha" operator="out"/>
<feColorMatrix type="matrix" values="0 0 0 0 0 0 0 0 0 0 0 0 0 0 0 0 0 0 0.25 0"/>
<feBlend mode="normal" in2="BackgroundImageFix" result="effect1_dropShadow"/>
<feBlend mode="normal" in="SourceGraphic" in2="effect1_dropShadow" result="shape"/>
</filter>
</defs>
</svg>
